<svg height="512pt" viewBox="0 -70 512 512" width="512pt" xmlns="http://www.w3.org/2000/svg"><path d="m502 10h-472c-11.046875 0-20 8.953125-20 20v136c0 11.046875 8.953125 20 20 20h472zm0 0" fill="#d8d8e4"/><path d="m502 10h-138.929688c-24.839843 0-44.980468 20.136719-44.980468 44.980469v86.039062c0 24.839844 20.140625 44.980469 44.980468 44.980469h138.929688zm0 0" fill="#fff"/><path d="m482 186h-452c-11.046875 0-20 8.953125-20 20v136c0 11.046875 8.953125 20 20 20h452c11.046875 0 20-8.953125 20-20v-136c0-11.046875-8.953125-20-20-20zm0 0" fill="#36d28f"/><path d="m202.292969 98c0 21.125-17.125 38.246094-38.246094 38.246094-21.125 0-38.25-17.121094-38.25-38.246094s17.125-38.246094 38.25-38.246094c21.121094 0 38.246094 17.121094 38.246094 38.246094zm0 0" fill="#ff5d5d"/><path d="m87.238281 320c5.523438 0 10-4.476562 10-10v-72c0-5.523438-4.476562-10-10-10-5.519531 0-10 4.476562-10 10v24.5h-20v-24.5c0-5.523438-4.476562-10-10-10-5.519531 0-10 4.476562-10 10v72c0 5.523438 4.480469 10 10 10 5.523438 0 10-4.476562 10-10v-27.5h20v27.5c0 5.523438 4.480469 10 10 10zm0 0"/><path d="m117.238281 238v72c0 5.523438 4.480469 10 10 10 5.523438 0 10-4.476562 10-10v-72c0-5.523438-4.476562-10-10-10-5.519531 0-10 4.476562-10 10zm0 0"/><path d="m250.691406 228h-25.203125c-5.519531 0-10 4.476562-10 10s4.480469 10 10 10h2.601563v62c0 5.523438 4.476562 10 10 10 5.523437 0 10-4.476562 10-10v-62h2.601562c5.523438 0 10-4.476562 10-10s-4.476562-10-10-10zm0 0"/><path d="m328.089844 290v-32c0-16.542969-13.457032-30-30-30-16.542969 0-30 13.457031-30 30v32c0 16.542969 13.457031 30 30 30 16.542968 0 30-13.457031 30-30zm-20 0c0 5.515625-4.484375 10-10 10s-10-4.484375-10-10v-32c0-5.515625 4.484375-10 10-10s10 4.484375 10 10zm0 0"/><path d="m404.433594 255.25c0-15.027344-12.226563-27.25-27.25-27.25h-19.09375c-5.523438 0-10 4.476562-10 10v72c0 5.523438 4.476562 10 10 10 5.523437 0 10-4.476562 10-10v-12.8125l19.160156 19.773438c1.960938 2.023437 4.570312 3.039062 7.183594 3.039062 2.507812 0 5.015625-.9375 6.957031-2.816406 3.96875-3.84375 4.066406-10.175782.222656-14.144532l-20.222656-20.863281c13.035156-2.03125 23.042969-13.332031 23.042969-26.925781zm-27.25 7.25h-9.09375v-14.5h9.09375c3.996094 0 7.25 3.253906 7.25 7.25s-3.253906 7.25-7.25 7.25zm0 0"/><path d="m185.304688 297h-15.3125c-5.523438 0-10 4.476562-10 10s4.476562 10 10 10h15.3125c15.023437 0 27.25-12.222656 27.25-27.25s-12.226563-27.25-27.25-27.25h-1.488282c-4 0-7.25-3.253906-7.25-7.25s3.25-7.25 7.25-7.25h10.476563c5.523437 0 10-4.476562 10-10s-4.476563-10-10-10h-10.476563c-15.027344 0-27.25 12.222656-27.25 27.25s12.222656 27.25 27.25 27.25h1.488282c3.996093 0 7.25 3.253906 7.25 7.25s-3.253907 7.25-7.25 7.25zm0 0"/><path d="m443.160156 320c5.523438 0 10-4.476562 10-10v-32.738281l20.207032-34.171875c2.8125-4.753906 1.234374-10.886719-3.519532-13.699219-4.753906-2.808594-10.886718-1.234375-13.695312 3.519531l-12.621094 21.339844-13.496094-21.558594c-2.929687-4.679687-9.101562-6.097656-13.78125-3.167968-4.683594 2.929687-6.101562 9.101562-3.171875 13.78125l20.078125 32.066406v34.628906c0 5.523438 4.476563 10 10 10zm0 0"/><path d="m276 352c-2.628906 0-5.210938 1.070312-7.070312 2.929688-1.859376 1.859374-2.929688 4.441406-2.929688 7.070312s1.070312 5.210938 2.929688 7.070312c1.859374 1.859376 4.441406 2.929688 7.070312 2.929688s5.210938-1.070312 7.070312-2.929688c1.859376-1.859374 2.929688-4.441406 2.929688-7.070312s-1.070312-5.210938-2.929688-7.070312c-1.859374-1.859376-4.441406-2.929688-7.070312-2.929688zm0 0"/><path d="m502 0h-472c-16.542969 0-30 13.457031-30 30v136c0 7.679688 2.902344 14.6875 7.664062 20-4.761718 5.3125-7.664062 12.320312-7.664062 20v136c0 16.542969 13.457031 30 30 30h208.089844c5.523437 0 10-4.476562 10-10s-4.476563-10-10-10h-208.089844c-5.515625 0-10-4.484375-10-10v-136c0-5.515625 4.484375-10 10-10h452c5.515625 0 10 4.484375 10 10v136c0 5.515625-4.484375 10-10 10h-165.667969c-5.519531 0-10 4.476562-10 10s4.480469 10 10 10h165.667969c16.542969 0 30-13.457031 30-30v-136c0-4.625-1.054688-9.011719-2.933594-12.925781 1.8125-1.808594 2.933594-4.3125 2.933594-7.074219v-176c0-5.523438-4.476562-10-10-10zm-482 166v-136c0-5.515625 4.484375-10 10-10h290.683594c-7.863282 9.511719-12.59375 21.703125-12.59375 34.980469v86.039062c0 13.277344 4.730468 25.46875 12.59375 34.980469h-290.683594c-5.515625 0-10-4.484375-10-10zm444.761719 10h-101.691407c-19.289062 0-34.980468-15.691406-34.980468-34.980469v-86.039062c0-19.289063 15.691406-34.980469 34.980468-34.980469h128.929688v20h-77.5c-5.523438 0-10 4.476562-10 10s4.476562 10 10 10h77.5v28h-118c-5.523438 0-10 4.476562-10 10s4.476562 10 10 10h118v28h-118c-5.523438 0-10 4.476562-10 10s4.476562 10 10 10h118v20zm0 0"/><path d="m164.046875 49.753906c-26.605469 0-48.25 21.640625-48.25 48.246094s21.644531 48.246094 48.25 48.246094c26.601563 0 48.246094-21.640625 48.246094-48.246094s-21.644531-48.246094-48.246094-48.246094zm0 76.492188c-15.578125 0-28.25-12.671875-28.25-28.246094s12.671875-28.246094 28.25-28.246094c15.574219 0 28.246094 12.671875 28.246094 28.246094s-12.671875 28.246094-28.246094 28.246094zm0 0"/><path d="m262.214844 57.667969c-5.523438 0-10 4.476562-10 10v60.667969c0 5.519531 4.476562 10 10 10 5.519531 0 10-4.480469 10-10v-60.667969c0-5.523438-4.480469-10-10-10zm0 0"/><path d="m65.121094 57.667969c-5.523438 0-10 4.476562-10 10v60.667969c0 5.519531 4.476562 10 10 10 5.519531 0 10-4.480469 10-10v-60.667969c0-5.523438-4.476563-10-10-10zm0 0"/><path d="m376.261719 60c2.628906 0 5.207031-1.070312 7.066406-2.929688 1.859375-1.859374 2.933594-4.441406 2.933594-7.070312s-1.070313-5.210938-2.933594-7.070312c-1.859375-1.859376-4.4375-2.929688-7.066406-2.929688-2.632813 0-5.210938 1.070312-7.070313 2.929688-1.859375 1.859374-2.929687 4.441406-2.929687 7.070312s1.066406 5.210938 2.929687 7.070312c1.859375 1.859376 4.4375 2.929688 7.070313 2.929688zm0 0"/></svg>