<svg height="480pt" viewBox="0 -68 480.00048 480" width="480pt" xmlns="http://www.w3.org/2000/svg"><path d="m16 176c-4.417969 0-8 3.582031-8 8v56h400l48-64zm0 0" fill="#00665a"/><path d="m456 192-48 64h-385.359375l-6.640625-16h392l36-48zm0 0" fill="#00665a"/><path d="m472 184v56l-39.121094 78.320312c-5.453125 10.816407-16.523437 17.652344-28.640625 17.679688h-326.878906c-12.929687-.003906-24.59375-7.757812-29.597656-19.679688l-31.761719-76.320312h392l48-64h8c4.417969 0 8 3.582031 8 8zm0 0" fill="#787680"/><g fill="#57565c"><path d="m456 192-48 64h-385.359375l-6.640625-16h392l36-48zm0 0"/><path d="m216 288c0 13.253906-10.746094 24-24 24s-24-10.746094-24-24 10.746094-24 24-24 24 10.746094 24 24zm0 0"/><path d="m120 288c0 13.253906-10.746094 24-24 24s-24-10.746094-24-24 10.746094-24 24-24 24 10.746094 24 24zm0 0"/><path d="m312 288c0 13.253906-10.746094 24-24 24s-24-10.746094-24-24 10.746094-24 24-24 24 10.746094 24 24zm0 0"/><path d="m408 288c0 13.253906-10.746094 24-24 24s-24-10.746094-24-24 10.746094-24 24-24 24 10.746094 24 24zm0 0"/></g><path d="m264 176h40v-32h-192v32zm0 0" fill="#004d44"/><path d="m96 80v64h224v-64zm0 0" fill="#00665a"/><path d="m64 80h32v48h-32zm0 0" fill="#004d44"/><path d="m455.503906 92.257812-8.28125-30.914062-30.910156 8.28125 4.152344 15.496094h.015625-.015625l4.136718 15.414062zm0 0" fill="#898890"/><path d="m112 144h192v16h-192zm0 0" fill="#00332d"/><path d="m192 256c-17.671875 0-32 14.328125-32 32s14.328125 32 32 32 32-14.328125 32-32-14.328125-32-32-32zm0 48c-8.835938 0-16-7.164062-16-16s7.164062-16 16-16 16 7.164062 16 16-7.164062 16-16 16zm0 0"/><path d="m96 256c-17.671875 0-32 14.328125-32 32s14.328125 32 32 32 32-14.328125 32-32-14.328125-32-32-32zm0 48c-8.835938 0-16-7.164062-16-16s7.164062-16 16-16 16 7.164062 16 16-7.164062 16-16 16zm0 0"/><path d="m288 256c-17.671875 0-32 14.328125-32 32s14.328125 32 32 32 32-14.328125 32-32-14.328125-32-32-32zm0 48c-8.835938 0-16-7.164062-16-16s7.164062-16 16-16 16 7.164062 16 16-7.164062 16-16 16zm0 0"/><path d="m384 256c-17.671875 0-32 14.328125-32 32s14.328125 32 32 32 32-14.328125 32-32-14.328125-32-32-32zm0 48c-8.835938 0-16-7.164062-16-16s7.164062-16 16-16 16 7.164062 16 16-7.164062 16-16 16zm0 0"/><path d="m464 168h-152v-16h8c4.417969 0 8-3.582031 8-8v-25.863281l86.808594-23.199219 2.0625 7.6875c.9375 3.496094 4.109375 5.925781 7.730468 5.925781.695313.003907 1.390626-.089843 2.0625-.269531l30.9375-8.28125c4.265626-1.144531 6.800782-5.53125 5.65625-9.800781l-8.304687-30.917969c-1.144531-4.265625-5.527344-6.796875-9.792969-5.65625l-30.914062 8.277344c-4.261719 1.144531-6.792969 5.527344-5.652344 9.792968l2.078125 7.769532-82.671875 22.136718v-21.601562c0-4.417969-3.582031-8-8-8h-160v-72h-16v72h-16v-40h-16v40h-48c-4.417969 0-8 3.582031-8 8v48c0 4.417969 3.582031 8 8 8h24v8c0 4.417969 3.582031 8 8 8h8v16h-88c-8.835938 0-16 7.164062-16 16v56c0 4.417969 3.582031 8 8 8h2.664062l29.742188 71.382812c6.191406 14.925782 20.773438 24.644532 36.929688 24.617188h326.886718c15.167969.050781 29.042969-8.523438 35.777344-22.113281l39.199219-78.308594c.539062-1.117187.8125-2.339844.800781-3.578125v-56c0-8.835938-7.164062-16-16-16zm-22.398438-96.855469 4.140626 15.457031-15.453126 4.144532-4.144531-15.457032zm-129.601562 64.855469h-65.054688l5.335938-8h11.71875v-16h-16c-2.675781 0-5.171875 1.335938-6.65625 3.558594l-13.625 20.441406h-51.71875v-12.6875l13.65625-13.65625-11.3125-11.3125-16 16c-1.5 1.5-2.34375 3.535156-2.34375 5.65625v16h-56v-48h16v16c0 2.121094.84375 4.15625 2.34375 5.65625l16 16 11.3125-11.3125-13.65625-13.65625v-12.6875h64v16c0 4.417969 3.582031 8 8 8h16v-16h-8v-8h48v16c-.003906 2.652344 1.308594 5.132812 3.503906 6.625l23.585938 16 8.980468-13.25-20.070312-13.613281v-11.761719h32zm-240-16v-32h16v32zm48 32h176v16h-176zm-104 32h16v16c0 2.121094.84375 4.15625 2.34375 5.65625l16 16 11.3125-11.3125-13.65625-13.65625v-12.6875h32v16h16v-16h40v16c0 2.121094.84375 4.15625 2.34375 5.65625l19.503906 19.503906 11.3125-11.3125-17.160156-17.160156v-12.6875h104v8c0 3.523438 2.308594 6.632812 5.679688 7.65625l26.398437 8 4.640625-15.3125-20.71875-6.28125v-2.0625h92.6875l-10.34375 10.34375 11.3125 11.3125 21.65625-21.65625h52.6875l-36 48h-28v-4.6875l13.320312-13.3125-11.320312-11.320312-15.65625 15.664062c-1.5 1.5-2.34375 3.535156-2.34375 5.65625v8h-32v-12.6875l13.65625-13.65625-11.3125-11.3125-16 16c-1.5 1.5-2.34375 3.535156-2.34375 5.65625v16h-20.6875l-21.65625-21.65625c-1.5-1.5-3.535156-2.34375-5.65625-2.34375h-16v16h12.6875l8 8h-60.6875v-16h16v-16h-24c-4.417969 0-8 3.582031-8 8v24h-84.734375l8-8h12.734375v-16h-16.046875c-2.121094 0-4.15625.84375-5.65625 2.34375l-21.65625 21.65625h-68.640625zm448 54.113281-38.3125 76.621094c-4.039062 8.15625-12.363281 13.300781-21.464844 13.265625h-326.886718c-9.6875.007812-18.421876-5.820312-22.136719-14.769531l-27.199219-65.230469h380c2.519531 0 4.890625-1.183594 6.398438-3.199219l45.601562-60.800781h4zm0 0"/></svg>